
<svg version="1.1" xmlns="http://www.w3.org/2000/svg" xmlns:xlink="http://www.w3.org/1999/xlink" x="0px" y="0px" width="262.5px"
	 height="105.1px" viewBox="0 0 262.5 105.1" style="overflow:visible;enable-background:new 0 0 262.5 105.1;"
	 xml:space="preserve">
<style type="text/css">
	.st0{fill:#CCCC99;}
</style>
<defs>
</defs>
<g>
	<path class="st0" d="M1.1,103.8C0.4,103,0,101.7,0,99.9V30.1c2.9-2.3,6.6-4.2,11.1-5.8c4.5-1.5,9.2-2.3,13.9-2.3
		c20.4,0,30.7,10.2,30.7,30.5c0,9.3-2.2,16.7-6.6,22.1c-4.4,5.4-10.5,8.2-18.4,8.2c-2.9,0-5.5-0.4-7.9-1.3s-4.4-2.2-6.1-3.9v22.4
		c0,1.7-0.3,3-1,3.9c-0.7,0.8-1.9,1.2-3.6,1.2H4.7C3,105.1,1.8,104.6,1.1,103.8z M35.8,64.8c2-3,3-7.2,3-12.6c0-6-1.2-10.2-3.5-12.7
		c-2.3-2.5-5.9-3.8-10.7-3.8c-3.3,0-5.9,0.6-7.9,1.7v21.2c0,3.4,0.9,6.1,2.8,8c1.9,1.9,4.4,2.9,7.4,2.9
		C30.9,69.3,33.8,67.8,35.8,64.8z"/>
	<path class="st0" d="M65.3,79.8c-0.7-0.8-1.1-2.1-1.1-3.9V5.2c0-1.7,0.4-3.1,1.1-3.9C66,0.4,67.2,0,68.9,0h7.8
		c1.7,0,2.9,0.4,3.6,1.3s1,2.2,1,4v70.6c0,1.7-0.3,3-1,3.9S78.4,81,76.7,81h-7.8C67.2,81,66,80.6,65.3,79.8z"/>
	<path class="st0" d="M95.8,75.6c-4-4.8-6-11.5-6-20.1c0-6.7,1.3-12.5,4-17.6c2.7-5,6.5-9,11.3-11.7c4.8-2.8,10.4-4.2,16.8-4.2
		c4.9,0,9.2,0.6,13,1.9c3.8,1.3,7.2,3.1,10.3,5.5v48.1c0,1.4-0.2,2.3-0.7,2.7c-0.5,0.5-1.3,0.7-2.6,0.7h-8.2c-0.8,0-1.3-0.2-1.7-0.5
		c-0.4-0.3-0.7-0.8-0.9-1.5l-1.1-4.2c-2.1,2.8-4.6,4.8-7.6,6.1c-3,1.3-6.6,1.9-10.8,1.9C105.1,82.8,99.8,80.4,95.8,75.6z
		 M125.9,66.2c2.2-2,3.4-4.7,3.4-8.1V37.3c-2.1-1.2-4.6-1.8-7.5-1.8c-4.6,0-8.2,1.7-10.9,5.2c-2.7,3.5-4.1,8.3-4.1,14.5
		c0,4.8,0.9,8.3,2.8,10.6c1.9,2.3,4.7,3.5,8.4,3.5C121,69.2,123.7,68.2,125.9,66.2z"/>
	<path class="st0" d="M163.4,81.2c-4-1-7.5-2.5-10.6-4.5c-1.1-0.7-1.7-1.4-1.7-2.1c0-0.4,0.2-0.9,0.5-1.5l3.6-7.4
		c0.4-0.8,0.8-1.2,1.2-1.2c0.5,0,1,0.2,1.6,0.6c2,1.4,4.5,2.5,7.5,3.5c3,1,5.8,1.4,8.2,1.4c3,0,5.2-0.4,6.6-1.1c1.3-0.8,2-2,2-3.9
		c0-1.2-0.4-2.2-1.3-3c-0.9-0.8-2.1-1.5-3.6-2.1c-1.5-0.6-4.1-1.5-7.9-2.8c-5.7-2-9.9-4.2-12.5-6.8c-2.6-2.5-3.9-6.2-3.9-10.8
		c0-5.6,2.1-9.9,6.2-12.9c4.1-2.9,9.6-4.4,16.5-4.4c8.1,0,15.1,1.9,20.8,5.7c1.1,0.7,1.7,1.5,1.7,2.3c0,0.5-0.2,1.1-0.6,1.8
		l-3.5,6.4c-0.4,0.8-0.8,1.2-1.2,1.2c-0.3,0-0.8-0.2-1.5-0.7c-1.7-1.1-3.8-2-6.1-2.7c-2.3-0.7-4.7-1.1-7-1.1c-2.9,0-5.1,0.4-6.5,1.1
		c-1.5,0.8-2.2,2.1-2.2,4c0,1.6,0.8,2.8,2.4,3.8c1.6,0.9,4.3,2,8.1,3.2l5.7,1.9c3.5,1.4,6.2,2.7,8.2,4.2c1.9,1.4,3.3,3.1,4.1,5
		c0.8,1.9,1.2,4.3,1.2,7.3c0,5.1-2,9.3-6,12.6c-4,3.3-9.8,4.9-17.5,4.9C171.6,82.8,167.4,82.3,163.4,81.2z"/>
	<path class="st0" d="M212,74.6c-5.1-5.4-7.6-12.8-7.6-22.2c0-9.4,2.5-16.8,7.6-22.2c5.1-5.4,12.2-8.2,21.4-8.2
		c9.3,0,16.4,2.7,21.5,8.2c5.1,5.4,7.6,12.8,7.6,22.2c0,9.4-2.5,16.8-7.6,22.2c-5.1,5.4-12.2,8.2-21.5,8.2
		C224.2,82.8,217.1,80.1,212,74.6z M242.4,64.6c2.1-2.7,3.1-6.7,3.1-12.2c0-5.3-1-9.3-3.1-12c-2.1-2.7-5.1-4.1-9-4.1
		c-3.9,0-6.8,1.4-8.9,4.1c-2.1,2.7-3.1,6.7-3.1,12c0,5.3,1,9.4,3.1,12.1c2.1,2.7,5,4.1,8.9,4.1C237.4,68.6,240.4,67.3,242.4,64.6z"
		/>
</g>
</svg>
