
<svg version="1.1" xmlns="http://www.w3.org/2000/svg" xmlns:xlink="http://www.w3.org/1999/xlink" x="0px" y="0px" width="465.9px"
	 height="160.9px" viewBox="0 0 465.9 160.9" style="overflow:visible;enable-background:new 0 0 465.9 160.9;"
	 xml:space="preserve">
<style type="text/css">
	.st0{fill:#333366;}
	.st1{fill:#CCCC99;}
</style>
<defs>
</defs>
<path class="st0" d="M435.9,160.9H30c-16.6,0-30-13.4-30-30L0,30C0,13.4,13.4,0,30,0l405.9,0c16.6,0,30,13.4,30,30v100.8
	C465.9,147.4,452.5,160.9,435.9,160.9z"/>
<path class="st1" d="M128.6,83.4c-1,0-2.1,0.1-3,0.2V48.1c0-1-0.8-1.9-1.9-1.9h-6.4c-1.2,0-2.2,1-2.2,2.2v39.9
	c-1.6,1.3-3,2.9-4.1,4.6c-3.8-5.8-10.3-9.6-17.7-9.6c-5.7,0-10.8,2.3-14.7,5.9V54.2c2.1,0.3,4.4,0.4,6.7,0.4c9.8,0,18-3.2,23.2-10
	c4.1-5.1,8-7,15.1-7c6.8,0,12.2,2.3,12.2,7.3c0,2.5-1.7,5.2-3.7,7.2c-0.8,0.8-0.4,2.2,0.8,2.3l6.9,1c0.9,0.1,1.9-0.1,2.6-0.8
	c2.7-2.6,4.4-6,4.4-9.6c0-9-10.2-14.1-24.6-14.1c-12.2,0-19.3,3.4-24.7,9.9c-4.1,4.9-7.1,7.2-13.9,7.2c-1.8,0-3.5-0.2-5-0.6V24.9
	c0-1-0.8-1.7-1.7-1.7h-14c-0.8,0-1.4,0.6-1.4,1.4l0,1.9c0,0.4-0.4,0.6-0.7,0.5c-2.9-1-6-1.3-9.3-0.9c-9.7,1.3-18.3,10.7-18.6,20.5
	c-0.3,12,9.3,21.8,21.2,21.8c2.6,0,5.1-0.5,7.4-1.3v54.4c0,2.5,2,4.5,4.5,4.5h9c2,0,3.7-1.6,3.7-3.7V120c3.8,3.6,9,5.9,14.7,5.9
	c7.4,0,13.9-3.8,17.7-9.6c4,6,10.9,9.9,18.7,9.5c10.8-0.5,19.6-9.3,20.2-20C150.4,93.6,140.7,83.4,128.6,83.4z M92.8,114.8
	c-5.3,0-9.6-4.3-9.6-9.6s4.3-9.6,9.6-9.6c5.3,0,9.6,4.3,9.6,9.6S98.1,114.8,92.8,114.8z M128.1,114.8c-5.3,0-9.6-4.3-9.6-9.6
	s4.3-9.6,9.6-9.6c5.3,0,9.6,4.3,9.6,9.6S133.4,114.8,128.1,114.8z"/>
<g>
	<path class="st1" d="M182.5,131.8c-0.7-0.8-1.1-2.1-1.1-3.9V58.2c2.9-2.3,6.6-4.2,11.1-5.8c4.5-1.5,9.2-2.3,13.9-2.3
		c20.4,0,30.7,10.2,30.7,30.5c0,9.3-2.2,16.7-6.6,22.1c-4.4,5.4-10.5,8.2-18.4,8.2c-2.9,0-5.5-0.4-7.9-1.3s-4.4-2.2-6.1-3.9V128
		c0,1.7-0.3,3-1,3.9c-0.7,0.8-1.9,1.2-3.6,1.2h-7.5C184.4,133.1,183.2,132.7,182.5,131.8z M217.2,92.8c2-3,3-7.2,3-12.6
		c0-6-1.2-10.2-3.5-12.7c-2.3-2.5-5.9-3.8-10.7-3.8c-3.3,0-5.9,0.6-7.9,1.7v21.2c0,3.4,0.9,6.1,2.8,8c1.9,1.9,4.4,2.9,7.4,2.9
		C212.3,97.3,215.2,95.8,217.2,92.8z"/>
	<path class="st1" d="M246.7,107.8c-0.7-0.8-1.1-2.1-1.1-3.9V33.3c0-1.7,0.4-3.1,1.1-3.9c0.7-0.9,1.9-1.3,3.6-1.3h7.8
		c1.7,0,2.9,0.4,3.6,1.3s1,2.2,1,4v70.6c0,1.7-0.3,3-1,3.9s-1.9,1.3-3.6,1.3h-7.8C248.6,109,247.4,108.6,246.7,107.8z"/>
	<path class="st1" d="M277.2,103.7c-4-4.8-6-11.5-6-20.1c0-6.7,1.3-12.5,4-17.6c2.7-5,6.5-9,11.3-11.7c4.8-2.8,10.4-4.2,16.8-4.2
		c4.9,0,9.2,0.6,13,1.9c3.8,1.3,7.2,3.1,10.3,5.5v48.1c0,1.4-0.2,2.3-0.7,2.7c-0.5,0.5-1.3,0.7-2.6,0.7h-8.2c-0.8,0-1.3-0.2-1.7-0.5
		c-0.4-0.3-0.7-0.8-0.9-1.5l-1.1-4.2c-2.1,2.8-4.6,4.8-7.6,6.1c-3,1.3-6.6,1.9-10.8,1.9C286.4,110.8,281.1,108.4,277.2,103.7z
		 M307.3,94.2c2.2-2,3.4-4.7,3.4-8.1V65.3c-2.1-1.2-4.6-1.8-7.5-1.8c-4.6,0-8.2,1.7-10.9,5.2c-2.7,3.5-4.1,8.3-4.1,14.5
		c0,4.8,0.9,8.3,2.8,10.6c1.9,2.3,4.7,3.5,8.4,3.5C302.4,97.2,305.1,96.2,307.3,94.2z"/>
	<path class="st1" d="M344.8,109.3c-4-1-7.5-2.5-10.6-4.5c-1.1-0.7-1.7-1.4-1.7-2.1c0-0.4,0.2-0.9,0.5-1.5l3.6-7.4
		c0.4-0.8,0.8-1.2,1.2-1.2c0.5,0,1,0.2,1.6,0.6c2,1.4,4.5,2.5,7.5,3.5c3,1,5.8,1.4,8.2,1.4c3,0,5.2-0.4,6.6-1.1c1.3-0.8,2-2,2-3.9
		c0-1.2-0.4-2.2-1.3-3c-0.9-0.8-2.1-1.5-3.6-2.1c-1.5-0.6-4.1-1.5-7.9-2.8c-5.7-2-9.9-4.2-12.5-6.8c-2.6-2.5-3.9-6.2-3.9-10.8
		c0-5.6,2.1-9.9,6.2-12.9c4.1-2.9,9.6-4.4,16.5-4.4c8.1,0,15.1,1.9,20.8,5.7c1.1,0.7,1.7,1.5,1.7,2.3c0,0.5-0.2,1.1-0.6,1.8
		l-3.5,6.4c-0.4,0.8-0.8,1.2-1.2,1.2c-0.3,0-0.8-0.2-1.5-0.7c-1.7-1.1-3.8-2-6.1-2.7c-2.3-0.7-4.7-1.1-7-1.1c-2.9,0-5.1,0.4-6.5,1.1
		c-1.5,0.8-2.2,2.1-2.2,4c0,1.6,0.8,2.8,2.4,3.8c1.6,0.9,4.3,2,8.1,3.2l5.7,1.9c3.5,1.4,6.2,2.7,8.2,4.2c1.9,1.4,3.3,3.1,4.1,5
		c0.8,1.9,1.2,4.3,1.2,7.3c0,5.1-2,9.3-6,12.6c-4,3.3-9.8,4.9-17.5,4.9C353,110.8,348.8,110.3,344.8,109.3z"/>
	<path class="st1" d="M393.4,102.6c-5.1-5.4-7.6-12.8-7.6-22.2c0-9.4,2.5-16.8,7.6-22.2c5.1-5.4,12.2-8.2,21.4-8.2
		c9.3,0,16.4,2.7,21.5,8.2c5.1,5.4,7.6,12.8,7.6,22.2c0,9.4-2.5,16.8-7.6,22.2c-5.1,5.4-12.2,8.2-21.5,8.2
		C405.6,110.8,398.5,108.1,393.4,102.6z M423.8,92.6c2.1-2.7,3.1-6.7,3.1-12.2c0-5.3-1-9.3-3.1-12c-2.1-2.7-5.1-4.1-9-4.1
		c-3.9,0-6.8,1.4-8.9,4.1c-2.1,2.7-3.1,6.7-3.1,12c0,5.3,1,9.4,3.1,12.1c2.1,2.7,5,4.1,8.9,4.1C418.7,96.6,421.8,95.3,423.8,92.6z"
		/>
</g>
</svg>
