
<svg version="1.1" xmlns="http://www.w3.org/2000/svg" xmlns:xlink="http://www.w3.org/1999/xlink" x="0px" y="0px" width="369.7px"
	 height="296.9px" viewBox="0 0 369.7 296.9" style="overflow:visible;enable-background:new 0 0 369.7 296.9;"
	 xml:space="preserve">
<style type="text/css">
	.st0{fill:#FFFFFF;}
	.st1{fill:#990000;}
</style>
<defs>
</defs>
<rect class="st0" width="369.7" height="296.9"/>
<g>
	<g>
		<path class="st1" d="M238.5,140.4c0-16.5-5.3-28.3-14.4-36.6c-8.9-8.3-22.4-12.7-41.3-12.7c-9.9,0-18.9,0.8-26.7,1.9
			c-0.8,0.1-1.3,0.8-1.3,1.5l0,99c0,0,0,0,0,0c0,0.3,0,0.6,0,1c0,8.9,2.3,15.9,6.6,20.2c4.2,4.3,10.3,6.6,17.7,6.6
			c7.4,0,12.7-2.4,16.4-6.4c3.7-4,5.7-10,5.7-18.5c0-1,0-2-0.1-3c0-0.7,0.4-1.3,1.1-1.5c8.9-2.5,16.2-6.4,21.5-11.7
			C233.4,170.6,238.5,157,238.5,140.4z M196.6,196.5c0,12.5-6.8,18.6-17.6,18.5c-12.3,0-19.4-6.8-19.4-19.4v0c0-0.9,0.8-1.6,1.6-1.5
			c5.2,0.4,11,0.6,17.5,0.6c5.7,0,11-0.4,16-1.3c0.9-0.2,1.8,0.5,1.8,1.5C196.6,195.4,196.6,195.9,196.6,196.5z M188.2,183.7h-16.9
			c-0.1,0-0.1,0-0.2,0c-0.6-0.1-1.2-0.1-1.7-0.2c-0.8-0.1-1.3-0.8-1.3-1.5v-77.9c0-0.7,0.5-1.4,1.3-1.5c3.4-0.6,8.1-1.1,14.2-1.1
			c27.8,0,41.4,15.3,41.3,39.3c0,25.1-12.8,40.4-36.4,42.9C188.3,183.7,188.3,183.7,188.2,183.7z"/>
		<g>
			<path class="st1" d="M213.8,127.9c-1.3-0.1-2.2-1.6-1.5-2.7c0.2-0.3,0.3-0.7,0.3-1.1c0-1.9-3.1-3.1-7.5-3.1
				c-4.1,0-6.5,0.8-8.8,2.8c-2.5,2.4-6.3,3.9-12.5,3.9c-6.9,0-12-1.9-12-4.7c0-1.2,0.7-2.1,1.5-2.8c0.4-0.3,0.9-0.4,1.4-0.4l0.4,0
				c1.2,0.1,1.9,1.4,1.5,2.5c-0.1,0.2-0.1,0.4-0.1,0.6c0,2,3.6,2.8,6.6,2.8c4.1,0,6.1-0.9,8.5-2.9c2.9-2.5,6.5-3.7,12.9-3.7
				c6.8,0,12.7,1.7,12.7,5.1c0,1.2-0.9,2.5-2.2,3.3C214.7,127.9,214.2,128,213.8,127.9L213.8,127.9z"/>
		</g>
		<g>
			<path class="st1" d="M213.8,146.9c-1.3-0.1-2.2-1.6-1.5-2.7c0.2-0.3,0.3-0.7,0.3-1.1c0-1.9-3.1-3.1-7.5-3.1
				c-4.1,0-6.5,0.8-8.8,2.8c-2.5,2.4-6.3,3.9-12.5,3.9c-6.9,0-12-1.9-12-4.7c0-1.2,0.7-2.1,1.5-2.8c0.4-0.3,0.9-0.4,1.4-0.4l0.4,0
				c1.2,0.1,1.9,1.4,1.5,2.5c-0.1,0.2-0.1,0.4-0.1,0.6c0,2,3.6,2.8,6.6,2.8c4.1,0,6.1-0.9,8.5-2.9c2.9-2.5,6.5-3.7,12.9-3.7
				c6.8,0,12.7,1.7,12.7,5.1c0,1.2-0.9,2.5-2.2,3.3C214.7,146.8,214.2,146.9,213.8,146.9L213.8,146.9z"/>
		</g>
		<g>
			<path class="st1" d="M213.8,163.7c-1.3-0.1-2.2-1.6-1.5-2.7c0.2-0.3,0.3-0.7,0.3-1.1c0-1.9-3.1-3.1-7.5-3.1
				c-4.1,0-6.5,0.8-8.8,2.8c-2.5,2.4-6.3,3.9-12.5,3.9c-6.9,0-12-1.9-12-4.7c0-1.2,0.7-2.1,1.5-2.8c0.4-0.3,0.9-0.4,1.4-0.4l0.4,0
				c1.2,0.1,1.9,1.4,1.5,2.5c-0.1,0.2-0.1,0.4-0.1,0.6c0,2,3.6,2.8,6.6,2.8c4.1,0,6.1-0.9,8.5-2.9c2.9-2.5,6.5-3.7,12.9-3.7
				c6.8,0,12.7,1.7,12.7,5.1c0,1.2-0.9,2.5-2.2,3.3C214.7,163.6,214.2,163.8,213.8,163.7L213.8,163.7z"/>
		</g>
	</g>
	<g>
		<path class="st1" d="M25.9,135.5c-0.4-0.5-0.7-1.3-0.7-2.3V91c0-1,0.2-1.8,0.7-2.4c0.4-0.5,1.1-0.8,2.1-0.8h13
			c7.1,0,12.4,1.9,16.1,5.8c3.7,3.9,5.5,10,5.5,18.4c0,8.3-1.9,14.4-5.6,18.3s-9.1,5.9-16,5.9H28C27,136.3,26.3,136,25.9,135.5z
			 M41.5,127.7c3.7,0,6.4-1.2,8.2-3.5c1.8-2.4,2.7-6.4,2.7-12.1c0-5.7-0.9-9.7-2.7-12c-1.8-2.3-4.6-3.5-8.2-3.5h-6.1v31.1H41.5z"/>
	</g>
	<g>
		<path class="st1" d="M64.8,192.2c0-0.3,0.1-0.7,0.2-1.1l16-44c0.3-0.8,0.6-1.4,1-1.7c0.4-0.3,0.9-0.5,1.5-0.5H88
			c0.7,0,1.2,0.2,1.5,0.5c0.3,0.3,0.6,0.9,0.9,1.7l16,44c0.1,0.4,0.2,0.8,0.2,1.1c0,0.8-0.4,1.2-1.1,1.2H98c-0.6,0-1-0.1-1.3-0.3
			c-0.3-0.2-0.5-0.6-0.7-1.2l-2.9-8.4H78.2l-2.8,8.4c-0.2,0.6-0.4,1-0.7,1.2c-0.3,0.2-0.7,0.3-1.3,0.3h-7.5
			C65.1,193.4,64.8,193,64.8,192.2z M90.9,175.3l-5.1-15.4l-5.2,15.4H90.9z"/>
		<path class="st1" d="M112.5,192.6c-0.4-0.5-0.7-1.3-0.7-2.3V148c0-1,0.2-1.8,0.7-2.3c0.4-0.5,1.2-0.7,2.2-0.7h3.8
			c0.7,0,1.2,0.1,1.6,0.3c0.4,0.2,0.7,0.6,1.1,1.2l17.4,28.1v-26.6c0-1,0.2-1.8,0.7-2.4c0.4-0.5,1.1-0.8,2.1-0.8h4.6
			c1,0,1.8,0.2,2.2,0.7c0.4,0.5,0.6,1.3,0.6,2.4v42.2c0,1-0.2,1.8-0.6,2.3c-0.4,0.5-1.1,0.7-2.2,0.7h-3.9c-0.7,0-1.2-0.1-1.5-0.3
			c-0.4-0.2-0.7-0.6-1.1-1.2L122,163.7v26.6c0,1-0.2,1.8-0.6,2.3c-0.4,0.5-1.1,0.7-2.2,0.7h-4.6
			C113.6,193.4,112.9,193.1,112.5,192.6z"/>
	</g>
	<g>
		<path class="st1" d="M244,137.4c-0.4-0.5-0.7-1.3-0.7-2.3V92.8c0-1,0.2-1.8,0.7-2.4c0.4-0.5,1.1-0.8,2.1-0.8h25.7
			c1,0,1.7,0.2,2,0.7c0.4,0.5,0.6,1.2,0.6,2.3v2.6c0,1.1-0.2,1.9-0.6,2.4c-0.4,0.5-1.1,0.7-2,0.7h-18.3v11.3h12.8c1,0,1.7,0.2,2,0.7
			c0.4,0.5,0.6,1.2,0.6,2.3v2.5c0,1.1-0.2,1.9-0.6,2.4c-0.4,0.5-1.1,0.7-2,0.7h-12.8v11.3h18.2c1,0,1.7,0.2,2,0.7s0.6,1.3,0.6,2.4
			v2.6c0,1.1-0.2,1.9-0.6,2.3c-0.4,0.5-1.1,0.7-2,0.7h-25.7C245.1,138.1,244.4,137.9,244,137.4z"/>
	</g>
	<g>
		<path class="st1" d="M244.3,192.6c-0.4-0.5-0.7-1.3-0.7-2.3v-42.2c0-1,0.2-1.8,0.7-2.4c0.4-0.5,1.1-0.8,2.1-0.8h15.7
			c10.5,0,15.7,5.3,15.7,15.8c0,3.4-0.6,6.2-1.9,8.6c-1.2,2.4-3.1,4.1-5.5,5.4l6.5,16.4c0.1,0.3,0.2,0.7,0.2,1
			c0,0.9-0.4,1.3-1.3,1.3H269c-0.6,0-1-0.1-1.3-0.2c-0.3-0.2-0.5-0.5-0.7-1.1l-5.7-15.7h-7.4v14c0,1-0.2,1.8-0.6,2.3
			c-0.4,0.5-1.1,0.7-2.2,0.7h-4.6C245.5,193.4,244.7,193.1,244.3,192.6z M260.6,167.9c2.4,0,4.1-0.6,5.3-1.7s1.8-2.9,1.8-5.4
			c0-2.5-0.5-4.3-1.6-5.4c-1.1-1.1-2.7-1.7-4.8-1.7h-7.4v14.2H260.6z"/>
		<path class="st1" d="M283.6,192.6c-0.4-0.5-0.7-1.3-0.7-2.3v-42.2c0-1,0.2-1.8,0.7-2.4c0.4-0.5,1.1-0.8,2.1-0.8h25.7
			c1,0,1.7,0.2,2,0.7c0.4,0.5,0.6,1.2,0.6,2.3v2.6c0,1.1-0.2,1.9-0.6,2.4c-0.4,0.5-1.1,0.7-2,0.7h-18.3v11.3h12.8c1,0,1.7,0.2,2,0.7
			c0.4,0.5,0.6,1.2,0.6,2.3v2.5c0,1.1-0.2,1.9-0.6,2.4c-0.4,0.5-1.1,0.7-2,0.7h-12.8v11.3h18.2c1,0,1.7,0.2,2,0.7s0.6,1.3,0.6,2.4
			v2.6c0,1.1-0.2,1.9-0.6,2.3c-0.4,0.5-1.1,0.7-2,0.7h-25.7C284.7,193.4,284,193.1,283.6,192.6z"/>
		<path class="st1" d="M317.3,192.2c0-0.3,0.1-0.7,0.2-1.1l16-44c0.3-0.8,0.6-1.4,1-1.7c0.4-0.3,0.9-0.5,1.5-0.5h4.5
			c0.7,0,1.2,0.2,1.5,0.5c0.3,0.3,0.6,0.9,0.9,1.7l16,44c0.1,0.4,0.2,0.8,0.2,1.1c0,0.8-0.4,1.2-1.1,1.2h-7.5c-0.6,0-1-0.1-1.3-0.3
			c-0.3-0.2-0.5-0.6-0.7-1.2l-2.9-8.4h-15.1l-2.8,8.4c-0.2,0.6-0.4,1-0.7,1.2c-0.3,0.2-0.7,0.3-1.3,0.3h-7.5
			C317.7,193.4,317.3,193,317.3,192.2z M343.4,175.3l-5.1-15.4l-5.2,15.4H343.4z"/>
	</g>
	<g>
		<path class="st1" d="M113,137c-0.4-0.5-0.7-1.3-0.7-2.3V92.3c0-1,0.2-1.8,0.7-2.3c0.4-0.5,1.2-0.7,2.2-0.7h3.8
			c0.7,0,1.2,0.1,1.6,0.3c0.4,0.2,0.7,0.6,1.1,1.2l17.4,28.1V92.4c0-1,0.2-1.8,0.7-2.4c0.4-0.5,1.1-0.8,2.1-0.8h4.6
			c1,0,1.8,0.2,2.2,0.7c0.4,0.5,0.6,1.3,0.6,2.4v42.2c0,1-0.2,1.8-0.6,2.3c-0.4,0.5-1.1,0.7-2.2,0.7h-3.9c-0.7,0-1.2-0.1-1.5-0.3
			c-0.4-0.2-0.7-0.6-1.1-1.2l-17.4-28.1v26.6c0,1-0.2,1.8-0.6,2.3c-0.4,0.5-1.1,0.7-2.2,0.7h-4.6C114.1,137.7,113.4,137.5,113,137z"
			/>
	</g>
	<g>
		<path class="st1" d="M88.4,89.7c-3.3,0-6.4,0.9-9,2.6c-1.4,0.9-3.2,0-3.2-1.7V62.6v-1.3v-9.1l0-3.4l-1.2,0.3l-1.3,0.3
			c-0.2,0-0.3,0.1-0.5,0.2L48.6,63.9c-1,0.6-1.3,1.8-0.7,2.8l0.7,1.2c0.6,1,1.8,1.3,2.8,0.7l15.5-8.9c1.3-0.8,3,0.2,3,1.7v0v1.3
			v47.5c0,0.1,0,0.1,0,0.2c-0.1,1.3-0.2,2.6-0.2,4c0,14.6,7.9,23.8,18.2,23.8c9.2,0,18.9-7.5,18.9-24.6
			C106.7,99.4,99.3,89.7,88.4,89.7z M98.7,117.2c-1.9-2.5-5-4.2-8.4-4.2h-6.1c-3.5,0-6.5,1.7-8.5,4.3c0-0.3,0-0.7,0-1
			c0-8.8,3.5-18,11.7-18c8.1,0,11.4,9.9,11.4,17.8C98.8,116.4,98.8,116.8,98.7,117.2z"/>
	</g>
</g>
<g>
	<path class="st1" d="M68.1,31.5c0,0.2-0.1,0.3-0.3,0.3l-2.9,0.1c-0.1,0-0.2-0.1-0.3-0.2l-3.2-8.1l-0.9,7.9c0,0.2-0.1,0.3-0.3,0.3
		l-2.6,0.1c-0.2,0-0.3-0.1-0.3-0.2l2.2-19.1c0-0.2,0.1-0.3,0.1-0.3c0.1-0.1,0.5-0.1,1.3-0.2c0.8-0.1,2-0.1,3.3-0.1
		c1.4,0,2.5,0.4,3.2,1.1c0.8,0.7,1.1,1.7,1.1,2.9c0,1.2-0.1,2.2-0.4,3.1c-0.3,0.9-0.7,1.7-1.4,2.4c-0.6,0.7-1.4,1.2-2.4,1.6l3.6,8.4
		C68.1,31.4,68.1,31.5,68.1,31.5z M62.4,14.9l-0.7,6.3c1.6-0.1,2.6-0.8,3.2-2.1c0.3-0.7,0.5-1.5,0.5-2.2s-0.2-1.3-0.5-1.6
		c-0.3-0.3-0.8-0.5-1.3-0.5C63,14.8,62.6,14.9,62.4,14.9z"/>
	<path class="st1" d="M71.2,29.5c-0.2-0.5-0.3-1-0.4-1.5c-0.1-0.5-0.1-1.2-0.1-2c0-0.9,0.1-1.9,0.3-3.2c0.6-4.2,2.5-6.3,5.8-6.3
		c1.2,0,2.2,0.4,2.9,1.3c0.7,0.9,1,2,1,3.3c0,1.4-0.1,2.7-0.3,4c0,0.2-0.2,0.3-0.4,0.4l-6.3,0.2c0,0.1,0,0.3,0,0.5
		c0,1,0.2,1.7,0.5,2.3c0.3,0.6,0.8,0.8,1.5,0.8s1.3-0.1,1.9-0.3c0.6-0.2,0.9-0.3,1-0.3c0.1,0,0.2,0,0.3,0.1c0.1,0.1,0.1,0.2,0.1,0.3
		l-0.3,2.2c0,0.1,0,0.2-0.1,0.2c0,0-0.1,0.1-0.2,0.1c-1,0.3-2,0.4-3,0.4c-0.9,0-1.7-0.1-2.2-0.3c-0.5-0.2-0.9-0.5-1.3-0.9
		C71.6,30.4,71.4,30,71.2,29.5z M73.9,22.3l-0.1,0.8l3.3-0.2c0.1,0,0.2,0,0.3-0.1c0.1-0.1,0.2-0.5,0.2-1c0-0.6,0-1-0.1-1.2
		c0-0.2-0.1-0.5-0.2-0.7c-0.2-0.5-0.5-0.8-1-0.8s-0.8,0.1-1.1,0.2C74.6,19.8,74.2,20.7,73.9,22.3z"/>
	<path class="st1" d="M89.9,19.5l-1.4-0.1c-0.4,0-0.7,0.1-1,0.3c-0.2,0.2-0.3,0.5-0.3,0.8c0,0.4,0.1,0.7,0.2,1.2
		c0.2,0.6,0.5,1.2,0.9,2c0.4,0.8,0.7,1.3,0.9,1.6c0.5,1,0.7,1.9,0.7,2.8c0,1.3-0.4,2.3-1.1,2.9c-0.7,0.7-1.9,1-3.4,1
		c-0.8,0-1.4,0-1.8-0.1c-0.4-0.1-0.7-0.1-0.7-0.2c0,0-0.1-0.1-0.1-0.2l0.3-2.3c0-0.2,0.1-0.3,0.2-0.3c0.1,0,0.4,0,0.8,0.1
		c0.4,0.1,0.7,0.1,1,0.1c1,0,1.5-0.4,1.5-1.2c0-0.6-0.1-1.1-0.4-1.6c-0.2-0.5-0.5-1-0.8-1.6c-0.3-0.5-0.5-1-0.7-1.3
		c-0.2-0.3-0.3-0.8-0.5-1.4c-0.2-0.6-0.3-1.1-0.3-1.6c0-1.2,0.4-2.1,1.1-2.9c0.7-0.7,1.7-1.1,3.1-1.1c0.9,0,1.6,0,2,0.1
		c0.2,0,0.3,0.1,0.3,0.3l-0.3,2.3C90.1,19.3,90.1,19.5,89.9,19.5z"/>
	<path class="st1" d="M94.5,16.6c0.2-1.9,0.3-2.8,0.4-2.9c0.1-0.1,0.1-0.1,0.3-0.1l2.4-0.1c0.2,0,0.3,0.1,0.3,0.3
		c-0.2,0.9-0.3,1.8-0.4,2.7l3-0.1c0.2,0,0.3,0.1,0.3,0.3l-0.4,2c0,0.2-0.1,0.3-0.3,0.3l-2.9,0.1c-0.6,5.2-0.9,8-0.9,8.6
		c0,1,0.4,1.5,1.3,1.5c0.4,0,0.8-0.1,1.3-0.2c0.4-0.1,0.7-0.2,0.8-0.2c0.2,0,0.3,0.1,0.3,0.3l-0.3,2.2c0,0.1,0,0.2-0.1,0.3
		c0,0.1-0.3,0.1-0.6,0.2c-0.4,0.1-1,0.1-1.9,0.1c-1.3,0-2.3-0.3-2.9-0.9c-0.6-0.6-0.9-1.5-0.9-2.7c0-1.2,0.3-4.3,1-9.2l-1.2,0.1
		c-0.2,0-0.3-0.1-0.3-0.3l0.3-2c0-0.2,0.1-0.3,0.3-0.3L94.5,16.6z"/>
	<path class="st1" d="M113.1,16.8l-1.6,14.6c0,0.2-0.1,0.3-0.3,0.3l-2.6,0.1c-0.2,0-0.3-0.1-0.3-0.2l0.2-1.7
		c-0.4,0.7-0.8,1.2-1.3,1.5c-0.5,0.4-1,0.5-1.6,0.5c-0.6,0-1.1-0.1-1.5-0.3c-0.4-0.2-0.7-0.5-1-0.8c-0.3-0.3-0.5-0.7-0.6-1.2
		c-0.3-0.8-0.4-1.9-0.4-3.3c0-1.4,0.1-2.6,0.3-3.6c0.2-1,0.4-1.7,0.5-2.2c0.1-0.5,0.3-1,0.6-1.6c0.2-0.5,0.5-1,0.8-1.4
		c0.7-0.8,1.6-1.2,2.6-1.2c0.8,0,1.4,0.2,1.8,0.6c0.4,0.4,0.8,0.9,1,1.7l0.2-1.7c0-0.2,0.1-0.3,0.3-0.3l2.5-0.1
		C113,16.5,113.1,16.6,113.1,16.8z M105.4,26c0,2,0.5,3,1.6,3c0.5,0,0.9-0.2,1.2-0.7c0.3-0.4,0.6-1.3,0.8-2.6
		c0.2-1.3,0.3-2.3,0.3-2.9c0-0.6,0-1,0-1.1s0-0.4-0.1-0.6c0-0.3-0.1-0.5-0.1-0.7c-0.1-0.2-0.2-0.4-0.3-0.6c-0.2-0.4-0.6-0.5-1.1-0.5
		s-0.9,0.2-1.2,0.7c-0.3,0.4-0.5,1-0.7,1.7C105.6,23.3,105.4,24.7,105.4,26z"/>
	<path class="st1" d="M121.9,31.6l0.1-1c-1,0.9-2.2,1.4-3.5,1.4c-1,0-1.7-0.4-2.1-1.1c-0.5-0.7-0.7-1.6-0.7-2.7c0-0.2,0-0.4,0.1-0.7
		l1.2-10.6c0-0.2,0.1-0.3,0.3-0.3l2.6-0.1c0.2,0,0.3,0.1,0.3,0.3l-1.1,10c0,0.2,0,0.4,0,0.6c0,0.7,0.1,1.2,0.4,1.4
		c0.3,0.2,0.7,0.4,1.2,0.4s1.1-0.1,1.6-0.3l1.3-11.9c0-0.2,0.1-0.3,0.3-0.3l2.6-0.1c0.2,0,0.3,0.1,0.3,0.3L125,31.4
		c0,0.2-0.1,0.3-0.3,0.3l-2.5,0.1C122,31.9,121.9,31.8,121.9,31.6z"/>
	<path class="st1" d="M137.3,19.7l-1.4-0.1c-1.1,0-2,0.2-2.8,0.7L132,31.4c0,0.2-0.1,0.3-0.3,0.3l-2.6,0.1c-0.2,0-0.3-0.1-0.3-0.2
		l1.7-14.7c0-0.2,0.1-0.3,0.3-0.3l2.5-0.1c0.2,0,0.3,0.1,0.3,0.3l-0.2,1.3c0.5-0.5,1.1-1,1.6-1.3c0.5-0.3,1-0.5,1.5-0.5
		s0.9,0,1.2,0.1c0.2,0,0.3,0.2,0.3,0.4c0,0.6-0.1,1.5-0.3,2.6C137.7,19.6,137.5,19.7,137.3,19.7z"/>
	<path class="st1" d="M150.1,16.8l-1.6,14.6c0,0.2-0.1,0.3-0.3,0.3l-2.6,0.1c-0.2,0-0.3-0.1-0.3-0.2l0.2-1.7
		c-0.4,0.7-0.8,1.2-1.3,1.5c-0.5,0.4-1,0.5-1.6,0.5c-0.6,0-1.1-0.1-1.5-0.3c-0.4-0.2-0.7-0.5-1-0.8c-0.3-0.3-0.5-0.7-0.6-1.2
		c-0.3-0.8-0.4-1.9-0.4-3.3c0-1.4,0.1-2.6,0.3-3.6c0.2-1,0.4-1.7,0.5-2.2c0.1-0.5,0.3-1,0.6-1.6c0.2-0.5,0.5-1,0.8-1.4
		c0.7-0.8,1.6-1.2,2.6-1.2c0.8,0,1.4,0.2,1.8,0.6c0.4,0.4,0.8,0.9,1,1.7l0.2-1.7c0-0.2,0.1-0.3,0.3-0.3l2.5-0.1
		C150,16.5,150.1,16.6,150.1,16.8z M142.4,26c0,2,0.5,3,1.6,3c0.5,0,0.9-0.2,1.2-0.7c0.3-0.4,0.6-1.3,0.8-2.6
		c0.2-1.3,0.3-2.3,0.3-2.9c0-0.6,0-1,0-1.1c0-0.2,0-0.4-0.1-0.6c0-0.3-0.1-0.5-0.1-0.7c-0.1-0.2-0.2-0.4-0.3-0.6
		c-0.2-0.4-0.6-0.5-1.1-0.5c-0.5,0-0.9,0.2-1.2,0.7c-0.3,0.4-0.5,1-0.7,1.7C142.5,23.3,142.4,24.7,142.4,26z"/>
	<path class="st1" d="M157.1,16.8l-0.1,1.2c1.2-1.1,2.4-1.6,3.5-1.6c1.4,0,2.3,0.8,2.7,2.3c0.1,0.4,0.2,0.8,0.2,1.2
		c0,0.4,0,0.7,0,0.9L162,31.5c0,0.2-0.1,0.3-0.3,0.3l-2.6,0.1c-0.2,0-0.3-0.1-0.3-0.2l1.2-10c0-0.2,0-0.4,0-0.6
		c0-0.7-0.2-1.2-0.5-1.4c-0.3-0.2-0.7-0.4-1.2-0.4c-0.5,0-1,0.1-1.6,0.3l-1.4,11.9c0,0.2-0.1,0.3-0.3,0.3l-2.6,0.1
		c-0.2,0-0.3-0.1-0.3-0.2l1.7-14.7c0-0.2,0.1-0.3,0.3-0.3l2.5-0.1C156.9,16.5,157.1,16.6,157.1,16.8z"/>
	<path class="st1" d="M167.8,16.6c0.2-1.9,0.3-2.8,0.4-2.9c0.1-0.1,0.1-0.1,0.3-0.1l2.4-0.1c0.2,0,0.3,0.1,0.3,0.3
		c-0.2,0.9-0.3,1.8-0.4,2.7l3-0.1c0.2,0,0.3,0.1,0.3,0.3l-0.4,2c0,0.2-0.1,0.3-0.3,0.3l-2.9,0.1c-0.6,5.2-0.9,8-0.9,8.6
		c0,1,0.4,1.5,1.3,1.5c0.4,0,0.8-0.1,1.3-0.2s0.7-0.2,0.8-0.2c0.2,0,0.3,0.1,0.3,0.3l-0.3,2.2c0,0.1,0,0.2-0.1,0.3
		c0,0.1-0.3,0.1-0.6,0.2c-0.4,0.1-1,0.1-1.9,0.1c-1.3,0-2.3-0.3-2.9-0.9c-0.6-0.6-0.9-1.5-0.9-2.7c0-1.2,0.3-4.3,1-9.2l-1.2,0.1
		c-0.2,0-0.3-0.1-0.3-0.3l0.3-2c0-0.2,0.1-0.3,0.3-0.3L167.8,16.6z"/>
	<path class="st1" d="M176,29.5c-0.2-0.5-0.3-1-0.4-1.5c-0.1-0.5-0.1-1.2-0.1-2c0-0.9,0.1-1.9,0.3-3.2c0.6-4.2,2.5-6.3,5.8-6.3
		c1.2,0,2.2,0.4,2.9,1.3c0.7,0.9,1,2,1,3.3c0,1.4-0.1,2.7-0.3,4c0,0.2-0.2,0.3-0.4,0.4l-6.3,0.2c0,0.1,0,0.3,0,0.5
		c0,1,0.2,1.7,0.5,2.3c0.3,0.6,0.8,0.8,1.5,0.8c0.7,0,1.3-0.1,1.9-0.3c0.6-0.2,0.9-0.3,1-0.3s0.2,0,0.3,0.1c0.1,0.1,0.1,0.2,0.1,0.3
		l-0.3,2.2c0,0.1,0,0.2-0.1,0.2c0,0-0.1,0.1-0.2,0.1c-1,0.3-2,0.4-3,0.4c-0.9,0-1.7-0.1-2.2-0.3c-0.5-0.2-0.9-0.5-1.3-0.9
		C176.5,30.4,176.2,30,176,29.5z M178.8,22.3l-0.1,0.8L182,23c0.1,0,0.2,0,0.3-0.1c0.1-0.1,0.2-0.5,0.2-1c0-0.6,0-1-0.1-1.2
		c0-0.2-0.1-0.5-0.2-0.7c-0.2-0.5-0.5-0.8-1-0.8s-0.8,0.1-1.1,0.2C179.5,19.8,179.1,20.7,178.8,22.3z"/>
	<path class="st1" d="M197.5,28.8l2-0.1c0.2,0,0.3,0.1,0.3,0.3l-0.3,2.4c0,0.2-0.1,0.3-0.3,0.3c-0.8,0.1-1.7,0.1-2.5,0.1
		c-1.3,0-2.3-0.4-2.9-1.2c-0.7-0.8-1-1.8-1-3c0-1.3,0.4-2.6,1.2-3.7c0.7-0.9,1.6-1.8,2.7-2.7c-0.8-2-1.2-3.7-1.2-5.1
		c0-1.4,0.4-2.5,1.2-3.4c0.8-0.9,2-1.4,3.4-1.4c1.2,0,2.1,0.4,2.9,1.1c0.7,0.8,1.1,1.7,1.1,2.9c0,1.2-0.4,2.4-1.2,3.4
		c-0.7,0.8-1.6,1.7-2.7,2.6c0.7,1.5,1.5,3.2,2.5,5.1c1,1.9,1.8,3.4,2.5,4.5c0.1,0.1,0.1,0.2,0.1,0.4c0,0.2-0.1,0.3-0.3,0.3l-2.9,0.1
		c-0.2,0-0.3-0.1-0.3-0.2c-1.7-3.2-3.1-5.8-4.1-7.9c-1.1,1.2-1.7,2.4-1.7,3.4C196,28.3,196.5,28.8,197.5,28.8z M198.6,16.2
		c0,0.8,0.2,1.8,0.7,3c1.1-1.3,1.7-2.4,1.7-3.4c0-0.4-0.1-0.7-0.3-1c-0.2-0.3-0.5-0.4-0.8-0.4C199,14.4,198.6,15,198.6,16.2z"/>
	<path class="st1" d="M220,31.5c0,0-0.5,0.1-1.2,0.3c-0.8,0.1-1.6,0.2-2.4,0.2c-1.3,0-2.3-0.4-3-1.3c-0.7-0.9-1.1-2-1.1-3.5
		c0-2.6,0.3-5.6,0.9-9.1c0.3-1.9,0.7-3.2,1.2-3.9c0.5-0.8,1.1-1.3,1.8-1.6c0.9-0.4,1.8-0.6,2.8-0.6c1,0,1.7,0,2,0.1
		c0.3,0.1,0.5,0.1,0.6,0.1c0.1,0,0.2,0.1,0.2,0.3l-0.3,2.4c0,0.2-0.1,0.3-0.3,0.3s-0.4,0-0.9-0.1c-0.5-0.1-0.9-0.1-1.2-0.1
		c-0.8,0-1.4,0.2-1.9,0.6c-0.4,0.4-0.7,1.2-0.9,2.4c-0.2,1.2-0.4,2.7-0.6,4.7s-0.3,3.5-0.3,4.5c0,1.2,0.5,1.8,1.6,1.8
		c0.3,0,0.9-0.1,1.6-0.2c0.8-0.1,1.2-0.2,1.3-0.2c0.2,0,0.3,0.1,0.3,0.3l-0.3,2.4C220.1,31.4,220,31.4,220,31.5z"/>
	<path class="st1" d="M234.2,16.8l-1.6,14.6c0,0.2-0.1,0.3-0.3,0.3l-2.6,0.1c-0.2,0-0.3-0.1-0.3-0.2l0.2-1.7
		c-0.4,0.7-0.8,1.2-1.3,1.5c-0.5,0.4-1,0.5-1.6,0.5c-0.6,0-1.1-0.1-1.5-0.3c-0.4-0.2-0.7-0.5-1-0.8c-0.3-0.3-0.5-0.7-0.6-1.2
		c-0.3-0.8-0.4-1.9-0.4-3.3c0-1.4,0.1-2.6,0.3-3.6c0.2-1,0.4-1.7,0.5-2.2c0.1-0.5,0.3-1,0.6-1.6c0.2-0.5,0.5-1,0.8-1.4
		c0.7-0.8,1.6-1.2,2.6-1.2c0.8,0,1.4,0.2,1.8,0.6c0.4,0.4,0.8,0.9,1,1.7l0.2-1.7c0-0.2,0.1-0.3,0.3-0.3l2.5-0.1
		C234.1,16.5,234.2,16.6,234.2,16.8z M226.5,26c0,2,0.5,3,1.6,3c0.5,0,0.9-0.2,1.2-0.7c0.3-0.4,0.6-1.3,0.8-2.6
		c0.2-1.3,0.3-2.3,0.3-2.9c0-0.6,0-1,0-1.1s0-0.4-0.1-0.6c0-0.3-0.1-0.5-0.1-0.7c-0.1-0.2-0.2-0.4-0.3-0.6c-0.2-0.4-0.6-0.5-1.1-0.5
		c-0.5,0-0.9,0.2-1.2,0.7c-0.3,0.4-0.5,1-0.7,1.7C226.6,23.3,226.5,24.7,226.5,26z"/>
	<path class="st1" d="M241.2,16.1l0,0.4l2.8-0.1c0.2,0,0.3,0.1,0.3,0.3l-0.4,2c0,0.2-0.1,0.3-0.3,0.3l-2.7,0.1l-1.2,12.3
		c0,0.1,0,0.2-0.1,0.3c0,0.1-0.1,0.1-0.2,0.1l-2.6,0.1c-0.2,0-0.3-0.1-0.3-0.2l1.4-12.5l-1.2,0.1c-0.2,0-0.3-0.1-0.3-0.3l0.3-2
		c0-0.2,0.1-0.3,0.3-0.3l1.1,0l0.2-1.5c0.2-1.9,0.8-3.2,1.7-4c0.8-0.6,1.8-0.9,3.2-0.9c0.9,0,1.7,0.1,2.4,0.3
		c0.3,0.1,0.4,0.2,0.4,0.4l-0.3,2.2c0,0.2-0.1,0.3-0.2,0.3c-0.1,0-0.4-0.1-0.8-0.2c-0.4-0.1-0.9-0.2-1.5-0.2s-1.1,0.2-1.3,0.7
		C241.5,14.2,241.3,15,241.2,16.1z"/>
	<path class="st1" d="M245.9,29.5c-0.2-0.5-0.3-1-0.4-1.5c-0.1-0.5-0.1-1.2-0.1-2c0-0.9,0.1-1.9,0.3-3.2c0.6-4.2,2.5-6.3,5.8-6.3
		c1.2,0,2.2,0.4,2.9,1.3c0.7,0.9,1,2,1,3.3c0,1.4-0.1,2.7-0.3,4c0,0.2-0.2,0.3-0.4,0.4l-6.3,0.2c0,0.1,0,0.3,0,0.5
		c0,1,0.2,1.7,0.5,2.3c0.3,0.6,0.8,0.8,1.5,0.8c0.7,0,1.3-0.1,1.9-0.3c0.6-0.2,0.9-0.3,1-0.3s0.2,0,0.3,0.1c0.1,0.1,0.1,0.2,0.1,0.3
		l-0.3,2.2c0,0.1,0,0.2-0.1,0.2c0,0-0.1,0.1-0.2,0.1c-1,0.3-2,0.4-3,0.4c-0.9,0-1.7-0.1-2.2-0.3c-0.5-0.2-0.9-0.5-1.3-0.9
		C246.4,30.4,246.1,30,245.9,29.5z M248.7,22.3l-0.1,0.8l3.3-0.2c0.1,0,0.2,0,0.3-0.1c0.1-0.1,0.2-0.5,0.2-1c0-0.6,0-1-0.1-1.2
		c0-0.2-0.1-0.5-0.2-0.7c-0.2-0.5-0.5-0.8-1-0.8s-0.8,0.1-1.1,0.2C249.4,19.8,249,20.7,248.7,22.3z"/>
	<path class="st1" d="M259.7,16.6c0.2-1.9,0.3-2.8,0.4-2.9c0.1-0.1,0.1-0.1,0.3-0.1l2.4-0.1c0.2,0,0.3,0.1,0.3,0.3
		c-0.2,0.9-0.3,1.8-0.4,2.7l3-0.1c0.2,0,0.3,0.1,0.3,0.3l-0.4,2c0,0.2-0.1,0.3-0.3,0.3l-2.9,0.1c-0.6,5.2-0.9,8-0.9,8.6
		c0,1,0.4,1.5,1.3,1.5c0.4,0,0.8-0.1,1.3-0.2c0.4-0.1,0.7-0.2,0.8-0.2c0.2,0,0.3,0.1,0.3,0.3l-0.3,2.2c0,0.1,0,0.2-0.1,0.3
		c0,0.1-0.3,0.1-0.6,0.2c-0.4,0.1-1,0.1-1.9,0.1c-1.3,0-2.3-0.3-2.9-0.9c-0.6-0.6-0.9-1.5-0.9-2.7c0-1.2,0.3-4.3,1-9.2l-1.2,0.1
		c-0.2,0-0.3-0.1-0.3-0.3l0.3-2c0-0.2,0.1-0.3,0.3-0.3L259.7,16.6z"/>
	<path class="st1" d="M268,29.5c-0.2-0.5-0.3-1-0.4-1.5c-0.1-0.5-0.1-1.2-0.1-2c0-0.9,0.1-1.9,0.3-3.2c0.6-4.2,2.5-6.3,5.8-6.3
		c1.2,0,2.2,0.4,2.9,1.3c0.7,0.9,1,2,1,3.3c0,1.4-0.1,2.7-0.3,4c0,0.2-0.2,0.3-0.4,0.4l-6.3,0.2c0,0.1,0,0.3,0,0.5
		c0,1,0.2,1.7,0.5,2.3c0.3,0.6,0.8,0.8,1.5,0.8c0.7,0,1.3-0.1,1.9-0.3c0.6-0.2,0.9-0.3,1-0.3c0.1,0,0.2,0,0.3,0.1
		c0.1,0.1,0.1,0.2,0.1,0.3l-0.3,2.2c0,0.1,0,0.2-0.1,0.2c0,0-0.1,0.1-0.2,0.1c-1,0.3-2,0.4-3,0.4c-0.9,0-1.7-0.1-2.2-0.3
		c-0.5-0.2-0.9-0.5-1.3-0.9C268.5,30.4,268.2,30,268,29.5z M270.8,22.3l-0.1,0.8L274,23c0.1,0,0.2,0,0.3-0.1c0.1-0.1,0.2-0.5,0.2-1
		c0-0.6,0-1-0.1-1.2c0-0.2-0.1-0.5-0.2-0.7c-0.2-0.5-0.5-0.8-1-0.8s-0.8,0.1-1.1,0.2C271.5,19.8,271,20.7,270.8,22.3z"/>
	<path class="st1" d="M288.3,19.7l-1.4-0.1c-1.1,0-2,0.2-2.8,0.7L283,31.4c0,0.2-0.1,0.3-0.3,0.3l-2.6,0.1c-0.2,0-0.3-0.1-0.3-0.2
		l1.7-14.7c0-0.2,0.1-0.3,0.3-0.3l2.5-0.1c0.2,0,0.3,0.1,0.3,0.3l-0.2,1.3c0.5-0.5,1.1-1,1.6-1.3c0.5-0.3,1-0.5,1.5-0.5
		c0.5,0,0.9,0,1.2,0.1c0.2,0,0.3,0.2,0.3,0.4c0,0.6-0.1,1.5-0.3,2.6C288.7,19.6,288.6,19.7,288.3,19.7z"/>
	<path class="st1" d="M294.7,16.8L293,31.5c0,0.1,0,0.2-0.1,0.3c0,0.1-0.1,0.1-0.2,0.1l-2.5,0.1c-0.2,0-0.3-0.1-0.3-0.2l1.7-14.7
		c0-0.2,0.1-0.3,0.3-0.3l2.5-0.1C294.6,16.5,294.7,16.6,294.7,16.8z M296.8,9.3l-2.4,5.2c-0.1,0.2-0.2,0.3-0.4,0.3l-1.7,0.1
		c-0.2,0-0.3-0.1-0.3-0.3l1.7-5.2c0.1-0.2,0.2-0.3,0.4-0.3l2.4-0.1C296.7,8.9,296.8,9.1,296.8,9.3z"/>
	<path class="st1" d="M308.1,16.8l-1.6,14.6c0,0.2-0.1,0.3-0.3,0.3l-2.6,0.1c-0.2,0-0.3-0.1-0.3-0.2l0.2-1.7
		c-0.4,0.7-0.8,1.2-1.3,1.5c-0.5,0.4-1,0.5-1.6,0.5c-0.6,0-1.1-0.1-1.5-0.3c-0.4-0.2-0.7-0.5-1-0.8c-0.3-0.3-0.5-0.7-0.6-1.2
		c-0.3-0.8-0.4-1.9-0.4-3.3c0-1.4,0.1-2.6,0.3-3.6c0.2-1,0.4-1.7,0.5-2.2c0.1-0.5,0.3-1,0.6-1.6c0.2-0.5,0.5-1,0.8-1.4
		c0.7-0.8,1.6-1.2,2.6-1.2c0.8,0,1.4,0.2,1.8,0.6c0.4,0.4,0.8,0.9,1,1.7l0.2-1.7c0-0.2,0.1-0.3,0.3-0.3l2.5-0.1
		C307.9,16.5,308.1,16.6,308.1,16.8z M300.3,26c0,2,0.5,3,1.6,3c0.5,0,0.9-0.2,1.2-0.7c0.3-0.4,0.6-1.3,0.8-2.6
		c0.2-1.3,0.3-2.3,0.3-2.9c0-0.6,0-1,0-1.1s0-0.4-0.1-0.6c0-0.3-0.1-0.5-0.1-0.7c-0.1-0.2-0.2-0.4-0.3-0.6c-0.2-0.4-0.6-0.5-1.1-0.5
		c-0.5,0-0.9,0.2-1.2,0.7c-0.3,0.4-0.5,1-0.7,1.7C300.5,23.3,300.3,24.7,300.3,26z"/>
</g>
<g>
	<path class="st1" d="M52.5,261.6l-1.5,13.7c-0.1,1-0.2,1.8-0.2,2.2s0.1,0.8,0.4,1.1c0.2,0.3,0.7,0.5,1.2,0.5s1-0.3,1.3-0.8
		c0.3-0.6,0.5-1.5,0.7-2.7l1.6-13.9c0-0.2,0.1-0.3,0.4-0.3l2.7-0.1c0.2,0,0.3,0.1,0.3,0.3l-1.5,13.7c-0.3,2.8-1,4.7-2.2,5.7
		c-0.9,0.8-2.1,1.2-3.6,1.2s-2.6-0.4-3.4-1.2c-0.8-0.8-1.2-1.9-1.2-3.4c0-0.7,0-1.5,0.1-2.3l1.6-13.7c0-0.1,0-0.2,0.1-0.2
		s0.1-0.1,0.2-0.1l2.7-0.1C52.4,261.3,52.5,261.4,52.5,261.6z"/>
	<path class="st1" d="M66,266.3l-0.1,1.2c1.3-1.1,2.5-1.7,3.7-1.7c1.5,0,2.4,0.8,2.8,2.5c0.1,0.4,0.2,0.9,0.2,1.3s0,0.7,0,1
		l-1.3,11.2c0,0.2-0.1,0.3-0.3,0.4l-2.7,0.1c-0.2,0-0.3-0.1-0.3-0.3l1.2-10.5c0-0.2,0-0.4,0-0.6c0-0.7-0.2-1.2-0.5-1.5
		c-0.3-0.3-0.8-0.4-1.3-0.4c-0.5,0-1.1,0.1-1.6,0.3l-1.4,12.5c0,0.2-0.1,0.3-0.3,0.4l-2.7,0.1c-0.2,0-0.3-0.1-0.3-0.3l1.8-15.5
		c0-0.2,0.1-0.3,0.3-0.3l2.6-0.1C65.9,265.9,66,266,66,266.3z"/>
	<path class="st1" d="M86.9,266.3l-1.7,15.4c0,0.2-0.1,0.4-0.3,0.4l-2.7,0.1c-0.2,0-0.3-0.1-0.3-0.3l0.3-1.8
		c-0.4,0.7-0.9,1.2-1.3,1.6c-0.5,0.4-1,0.6-1.6,0.6c-0.6,0-1.1-0.1-1.5-0.3c-0.4-0.2-0.8-0.5-1-0.8c-0.3-0.3-0.5-0.8-0.7-1.2
		c-0.3-0.9-0.5-2-0.5-3.5c0-1.5,0.1-2.7,0.3-3.8c0.2-1,0.4-1.8,0.5-2.4c0.2-0.5,0.4-1.1,0.6-1.7c0.3-0.6,0.5-1,0.9-1.4
		c0.7-0.9,1.6-1.3,2.8-1.3c0.8,0,1.5,0.2,1.9,0.6c0.4,0.4,0.8,1,1.1,1.8l0.2-1.8c0-0.2,0.1-0.3,0.3-0.3l2.6-0.1
		C86.8,265.9,86.9,266,86.9,266.3z M78.8,275.9c0,2.1,0.6,3.2,1.7,3.2c0.5,0,0.9-0.2,1.2-0.7c0.3-0.5,0.6-1.4,0.8-2.8
		c0.2-1.4,0.3-2.4,0.3-3s0-1,0-1.2c0-0.2,0-0.4-0.1-0.7c0-0.3-0.1-0.5-0.1-0.7c-0.1-0.2-0.2-0.4-0.3-0.6c-0.2-0.4-0.6-0.6-1.1-0.6
		s-0.9,0.2-1.2,0.7c-0.3,0.5-0.5,1.1-0.7,1.8C79,273.1,78.8,274.6,78.8,275.9z"/>
	<path class="st1" d="M96.9,266c0.2-2,0.3-3,0.4-3c0.1-0.1,0.2-0.1,0.3-0.1l2.5-0.1c0.2,0,0.4,0.1,0.4,0.3c-0.2,1-0.3,1.9-0.4,2.8
		l3.1-0.1c0.2,0,0.3,0.1,0.3,0.3l-0.4,2.1c0,0.2-0.1,0.3-0.3,0.3l-3,0.1c-0.6,5.4-0.9,8.4-0.9,9c0,1,0.4,1.6,1.3,1.6
		c0.5,0,0.9-0.1,1.3-0.2c0.4-0.1,0.7-0.2,0.8-0.2c0.2,0,0.3,0.1,0.3,0.3l-0.3,2.3c0,0.1-0.1,0.2-0.1,0.3c0,0.1-0.3,0.1-0.7,0.2
		c-0.4,0.1-1,0.1-2,0.1c-1.4,0-2.4-0.3-3-1s-1-1.6-1-2.8c0-1.3,0.4-4.5,1.1-9.6l-1.3,0.1c-0.2,0-0.3-0.1-0.3-0.3l0.4-2.1
		c0-0.2,0.1-0.3,0.3-0.3L96.9,266z"/>
	<path class="st1" d="M113.7,269.3l-1.4-0.1c-1.2,0-2.1,0.2-2.9,0.7l-1.3,11.7c0,0.2-0.1,0.3-0.3,0.4l-2.7,0.1
		c-0.2,0-0.3-0.1-0.3-0.3l1.8-15.5c0-0.2,0.1-0.3,0.3-0.3l2.6-0.1c0.2,0,0.4,0.1,0.4,0.3l-0.2,1.4c0.6-0.6,1.1-1,1.7-1.4
		c0.5-0.3,1.1-0.5,1.6-0.5s0.9,0,1.2,0.1c0.2,0,0.3,0.2,0.3,0.4c0,0.6-0.1,1.5-0.3,2.7C114,269.2,113.9,269.3,113.7,269.3z"/>
	<path class="st1" d="M127.1,266.3l-1.7,15.4c0,0.2-0.1,0.4-0.3,0.4l-2.7,0.1c-0.2,0-0.3-0.1-0.3-0.3l0.3-1.8
		c-0.4,0.7-0.9,1.2-1.3,1.6c-0.5,0.4-1,0.6-1.6,0.6c-0.6,0-1.1-0.1-1.5-0.3c-0.4-0.2-0.8-0.5-1-0.8c-0.3-0.3-0.5-0.8-0.7-1.2
		c-0.3-0.9-0.5-2-0.5-3.5c0-1.5,0.1-2.7,0.3-3.8c0.2-1,0.4-1.8,0.5-2.4c0.2-0.5,0.4-1.1,0.6-1.7c0.3-0.6,0.5-1,0.9-1.4
		c0.7-0.9,1.6-1.3,2.8-1.3c0.8,0,1.5,0.2,1.9,0.6c0.4,0.4,0.8,1,1.1,1.8l0.2-1.8c0-0.2,0.1-0.3,0.3-0.3l2.6-0.1
		C127,265.9,127.1,266,127.1,266.3z M119,275.9c0,2.1,0.6,3.2,1.7,3.2c0.5,0,0.9-0.2,1.2-0.7c0.3-0.5,0.6-1.4,0.8-2.8
		c0.2-1.4,0.3-2.4,0.3-3s0-1,0-1.2c0-0.2,0-0.4-0.1-0.7c0-0.3-0.1-0.5-0.1-0.7c-0.1-0.2-0.2-0.4-0.3-0.6c-0.2-0.4-0.6-0.6-1.1-0.6
		s-0.9,0.2-1.2,0.7c-0.3,0.5-0.5,1.1-0.7,1.8C119.1,273.1,119,274.6,119,275.9z"/>
	<path class="st1" d="M136.2,280.2c-0.8,1.3-1.8,2-2.9,2c-1.5,0-2.6-0.8-3.2-2.4c-0.3-0.9-0.5-2-0.5-3.5c0-1.5,0.1-2.7,0.3-3.8
		c0.2-1,0.4-1.8,0.5-2.4c0.2-0.5,0.4-1.1,0.6-1.7c0.3-0.6,0.5-1,0.9-1.4c0.7-0.9,1.6-1.3,2.8-1.3c0.8,0,1.4,0.2,1.9,0.6
		c0.4,0.4,0.8,1,1.1,1.7l0.8-8.2c0-0.2,0.1-0.4,0.4-0.4l2.6-0.1c0.2,0,0.3,0.1,0.3,0.4l-2.5,21.8c0,0.2-0.1,0.4-0.3,0.4l-2.7,0.1
		c-0.2,0-0.3-0.1-0.3-0.3L136.2,280.2z M133,275.9c0,2.1,0.6,3.2,1.7,3.2c0.5,0,0.9-0.2,1.2-0.7c0.3-0.5,0.6-1.4,0.8-2.8
		c0.2-1.4,0.3-2.4,0.3-3s0-1,0-1.2c0-0.2,0-0.4-0.1-0.7c0-0.3-0.1-0.5-0.1-0.7c-0.1-0.2-0.2-0.4-0.3-0.6c-0.2-0.4-0.6-0.6-1.1-0.6
		s-0.9,0.2-1.2,0.7c-0.3,0.5-0.5,1.1-0.7,1.8C133.2,273.1,133,274.6,133,275.9z"/>
	<path class="st1" d="M148.3,266.3l-1.7,15.4c0,0.1,0,0.2-0.1,0.3c0,0.1-0.1,0.1-0.3,0.1l-2.7,0.1c-0.2,0-0.3-0.1-0.3-0.3l1.8-15.5
		c0-0.2,0.1-0.3,0.3-0.3l2.6-0.1C148.2,265.9,148.3,266,148.3,266.3z M146.8,264.5c-0.5,0-1-0.2-1.3-0.5c-0.3-0.3-0.5-0.8-0.5-1.3
		c0-0.5,0.2-1,0.7-1.5c0.4-0.4,0.9-0.6,1.5-0.6c0.6,0,1,0.2,1.3,0.5c0.3,0.3,0.5,0.8,0.5,1.3s-0.2,1-0.7,1.5
		S147.3,264.5,146.8,264.5z"/>
	<path class="st1" d="M160,266.2c0.2,0.1,0.3,0.2,0.3,0.5l-0.3,2.4c0,0.2-0.1,0.3-0.4,0.3s-0.4,0-0.6-0.1c-0.9-0.4-1.6-0.6-2.1-0.6
		c-0.6,0-1,0.2-1.4,0.7c-0.3,0.5-0.6,1.1-0.8,2c-0.4,1.6-0.6,3.1-0.6,4.5c0,2.2,0.6,3.3,1.7,3.3c0.8,0,1.5-0.1,2-0.3
		c0.5-0.2,0.8-0.3,1-0.3c0.3,0,0.5,0.1,0.5,0.4l-0.3,2.3c0,0.2-0.1,0.3-0.1,0.3c0,0-0.1,0.1-0.2,0.1c-1.1,0.3-2.1,0.5-3,0.5
		c-0.9,0-1.7-0.1-2.2-0.4c-0.5-0.2-1-0.5-1.3-0.9c-0.3-0.4-0.6-0.8-0.8-1.4c-0.3-0.9-0.5-2-0.5-3.4s0.1-2.5,0.3-3.5s0.4-1.8,0.5-2.4
		c0.2-0.6,0.4-1.2,0.8-1.8c0.3-0.6,0.7-1,1.1-1.4c0.9-0.8,2.2-1.2,3.7-1.2C158.3,265.8,159.2,265.9,160,266.2z"/>
	<path class="st1" d="M167.3,266.3l-1.7,15.4c0,0.1,0,0.2-0.1,0.3c0,0.1-0.1,0.1-0.3,0.1l-2.7,0.1c-0.2,0-0.3-0.1-0.3-0.3l1.8-15.5
		c0-0.2,0.1-0.3,0.3-0.3l2.6-0.1C167.2,265.9,167.3,266,167.3,266.3z M165.9,264.5c-0.5,0-1-0.2-1.3-0.5c-0.3-0.3-0.5-0.8-0.5-1.3
		c0-0.5,0.2-1,0.7-1.5c0.4-0.4,0.9-0.6,1.5-0.6c0.6,0,1,0.2,1.3,0.5c0.3,0.3,0.5,0.8,0.5,1.3s-0.2,1-0.7,1.5
		S166.4,264.5,165.9,264.5z"/>
	<path class="st1" d="M174.5,282.2c-1.6,0-2.7-0.5-3.5-1.4c-0.7-0.9-1.1-2.3-1.1-4.1c0-0.8,0.1-1.9,0.3-3.3c0.2-1.4,0.4-2.3,0.5-3
		c0.2-0.6,0.4-1.2,0.7-1.8c0.3-0.6,0.6-1.1,1-1.5c0.9-0.9,2.1-1.3,3.6-1.3c2.1,0,3.5,0.8,4.1,2.3c0.3,0.8,0.5,1.8,0.5,3
		s-0.1,2.4-0.3,3.7c-0.2,1.3-0.4,2.2-0.5,2.8c-0.2,0.6-0.4,1.2-0.7,1.8c-0.3,0.6-0.6,1.1-1,1.4C177.3,281.7,176,282.2,174.5,282.2z
		 M176.8,276.3c0.1-0.5,0.2-1.4,0.4-2.6s0.2-2.2,0.2-2.9c0-1.5-0.5-2.3-1.6-2.3c-0.5,0-0.9,0.2-1.3,0.7s-0.6,1.3-0.8,2.4
		c-0.4,2.3-0.6,4.2-0.6,5.6s0.5,2.2,1.6,2.2c0.5,0,0.9-0.2,1.3-0.7S176.6,277.5,176.8,276.3z M180.2,258.3l-2.6,5.5
		c-0.1,0.2-0.2,0.3-0.5,0.3l-1.8,0.1c-0.2,0-0.3-0.1-0.3-0.3l1.8-5.5c0.1-0.2,0.2-0.4,0.4-0.4l2.5-0.1
		C180.1,258,180.2,258.1,180.2,258.3z"/>
	<path class="st1" d="M188.3,266.3l-0.1,1.2c1.3-1.1,2.5-1.7,3.7-1.7c1.5,0,2.4,0.8,2.8,2.5c0.1,0.4,0.2,0.9,0.2,1.3s0,0.7,0,1
		l-1.3,11.2c0,0.2-0.1,0.3-0.3,0.4l-2.7,0.1c-0.2,0-0.3-0.1-0.3-0.3l1.2-10.5c0-0.2,0-0.4,0-0.6c0-0.7-0.2-1.2-0.5-1.5
		c-0.3-0.3-0.8-0.4-1.3-0.4c-0.5,0-1.1,0.1-1.6,0.3l-1.4,12.5c0,0.2-0.1,0.3-0.3,0.4l-2.7,0.1c-0.2,0-0.3-0.1-0.3-0.3l1.8-15.5
		c0-0.2,0.1-0.3,0.3-0.3l2.6-0.1C188.1,265.9,188.3,266,188.3,266.3z"/>
	<path class="st1" d="M209.9,280.2c-0.8,1.3-1.8,2-2.9,2c-1.5,0-2.6-0.8-3.2-2.4c-0.3-0.9-0.5-2-0.5-3.5c0-1.5,0.1-2.7,0.3-3.8
		c0.2-1,0.4-1.8,0.5-2.4c0.2-0.5,0.4-1.1,0.6-1.7c0.3-0.6,0.5-1,0.9-1.4c0.7-0.9,1.6-1.3,2.8-1.3c0.8,0,1.4,0.2,1.9,0.6
		c0.4,0.4,0.8,1,1.1,1.7l0.8-8.2c0-0.2,0.1-0.4,0.4-0.4l2.6-0.1c0.2,0,0.3,0.1,0.3,0.4l-2.5,21.8c0,0.2-0.1,0.4-0.3,0.4l-2.7,0.1
		c-0.2,0-0.3-0.1-0.3-0.3L209.9,280.2z M206.7,275.9c0,2.1,0.6,3.2,1.7,3.2c0.5,0,0.9-0.2,1.2-0.7c0.3-0.5,0.6-1.4,0.8-2.8
		c0.2-1.4,0.3-2.4,0.3-3s0-1,0-1.2c0-0.2,0-0.4-0.1-0.7c0-0.3-0.1-0.5-0.1-0.7c-0.1-0.2-0.2-0.4-0.3-0.6c-0.2-0.4-0.6-0.6-1.1-0.6
		s-0.9,0.2-1.2,0.7c-0.3,0.5-0.5,1.1-0.7,1.8C206.9,273.1,206.7,274.6,206.7,275.9z"/>
	<path class="st1" d="M217.8,279.5c-0.2-0.5-0.4-1.1-0.4-1.6c-0.1-0.5-0.1-1.2-0.1-2.1c0-0.9,0.1-2,0.3-3.4c0.6-4.4,2.7-6.7,6-6.7
		c1.3,0,2.3,0.4,3,1.3c0.7,0.9,1,2.1,1,3.5s-0.1,2.8-0.3,4.2c0,0.2-0.2,0.4-0.4,0.4l-6.6,0.2c0,0.1,0,0.3,0,0.5c0,1,0.2,1.8,0.5,2.4
		c0.4,0.6,0.9,0.9,1.6,0.9c0.7,0,1.4-0.1,2-0.3c0.6-0.2,1-0.3,1.1-0.3c0.1,0,0.2,0,0.3,0.1c0.1,0.1,0.1,0.2,0.1,0.3l-0.3,2.3
		c0,0.1,0,0.2-0.1,0.3s-0.1,0.1-0.2,0.1c-1.1,0.3-2.1,0.5-3.1,0.5c-1,0-1.8-0.1-2.3-0.4c-0.6-0.2-1-0.5-1.3-0.9
		C218.3,280.5,218,280,217.8,279.5z M220.7,272.1l-0.1,0.9l3.5-0.2c0.2,0,0.2,0,0.3-0.1c0.1-0.1,0.2-0.5,0.2-1.1c0-0.6,0-1-0.1-1.3
		s-0.1-0.5-0.2-0.8c-0.2-0.6-0.6-0.9-1-0.9c-0.5,0-0.9,0.1-1.2,0.3C221.4,269.3,221,270.4,220.7,272.1z"/>
	<path class="st1" d="M243.1,269l-1.5-0.1c-0.4,0-0.8,0.1-1,0.3s-0.4,0.5-0.4,0.8c0,0.4,0.1,0.8,0.2,1.2c0.2,0.6,0.5,1.3,0.9,2.1
		c0.4,0.8,0.7,1.3,0.9,1.7c0.5,1,0.8,2,0.8,2.9c0,1.3-0.4,2.4-1.2,3.1c-0.8,0.7-2,1.1-3.6,1.1c-0.8,0-1.4,0-1.9-0.1
		c-0.5-0.1-0.7-0.2-0.8-0.2s-0.1-0.1-0.1-0.2l0.3-2.5c0-0.2,0.1-0.3,0.2-0.3s0.4,0,0.8,0.1s0.7,0.1,1,0.1c1.1,0,1.6-0.4,1.6-1.3
		c0-0.6-0.1-1.2-0.4-1.7s-0.5-1.1-0.9-1.7c-0.3-0.6-0.5-1-0.7-1.4c-0.2-0.3-0.3-0.8-0.5-1.4c-0.2-0.6-0.3-1.2-0.3-1.7
		c0-1.2,0.4-2.2,1.1-3s1.8-1.1,3.2-1.1c0.9,0,1.6,0,2.1,0.1c0.2,0,0.3,0.2,0.3,0.3l-0.3,2.4C243.3,268.9,243.2,269,243.1,269z"/>
	<path class="st1" d="M257.6,266.3l-1.7,15.4c0,0.2-0.1,0.4-0.3,0.4l-2.7,0.1c-0.2,0-0.3-0.1-0.3-0.3l0.3-1.8
		c-0.4,0.7-0.9,1.2-1.3,1.6c-0.5,0.4-1,0.6-1.6,0.6c-0.6,0-1.1-0.1-1.5-0.3c-0.4-0.2-0.8-0.5-1-0.8c-0.3-0.3-0.5-0.8-0.7-1.2
		c-0.3-0.9-0.5-2-0.5-3.5c0-1.5,0.1-2.7,0.3-3.8c0.2-1,0.4-1.8,0.5-2.4c0.2-0.5,0.4-1.1,0.6-1.7c0.3-0.6,0.5-1,0.9-1.4
		c0.7-0.9,1.6-1.3,2.8-1.3c0.8,0,1.5,0.2,1.9,0.6c0.4,0.4,0.8,1,1.1,1.8l0.2-1.8c0-0.2,0.1-0.3,0.3-0.3l2.6-0.1
		C257.4,265.9,257.6,266,257.6,266.3z M249.4,275.9c0,2.1,0.6,3.2,1.7,3.2c0.5,0,0.9-0.2,1.2-0.7c0.3-0.5,0.6-1.4,0.8-2.8
		c0.2-1.4,0.3-2.4,0.3-3s0-1,0-1.2c0-0.2,0-0.4-0.1-0.7c0-0.3-0.1-0.5-0.1-0.7c-0.1-0.2-0.2-0.4-0.3-0.6c-0.2-0.4-0.6-0.6-1.1-0.6
		s-0.9,0.2-1.2,0.7c-0.3,0.5-0.5,1.1-0.7,1.8C249.6,273.1,249.4,274.6,249.4,275.9z"/>
	<path class="st1" d="M265.5,259.8l-1.1,8.5c0.4-0.8,0.9-1.5,1.4-1.9c0.5-0.4,1.1-0.7,1.7-0.7s1.2,0.1,1.6,0.3
		c0.4,0.2,0.8,0.5,1,0.8c0.3,0.3,0.5,0.8,0.7,1.2c0.3,0.9,0.5,2,0.5,3.5s-0.1,2.7-0.3,3.8c-0.2,1-0.4,1.8-0.5,2.4
		c-0.2,0.5-0.4,1.1-0.6,1.7s-0.5,1-0.9,1.4c-0.7,0.9-1.6,1.3-2.6,1.3c-1,0-1.7-0.2-2.1-0.6s-0.8-1-1.1-1.9l-0.1,1.9
		c0,0.2-0.1,0.4-0.3,0.4l-2.7,0.1c-0.2,0-0.3-0.1-0.3-0.3l2.5-21.9c0-0.1,0-0.2,0.1-0.3c0-0.1,0.1-0.1,0.2-0.1l2.6-0.1
		C265.4,259.5,265.5,259.6,265.5,259.8z M268,272c0-2.1-0.6-3.2-1.7-3.2c-0.5,0-0.9,0.2-1.2,0.7s-0.6,1.4-0.8,2.8
		c-0.2,1.4-0.3,2.4-0.3,3c0,0.6,0,1,0,1.2c0,0.2,0,0.4,0.1,0.7c0,0.3,0.1,0.5,0.1,0.7c0.1,0.2,0.2,0.4,0.3,0.6
		c0.2,0.4,0.6,0.6,1.1,0.6c0.5,0,0.9-0.2,1.2-0.7c0.3-0.5,0.5-1.1,0.7-1.8C267.8,274.9,268,273.4,268,272z"/>
	<path class="st1" d="M278.8,282.2c-1.6,0-2.7-0.5-3.5-1.4c-0.7-0.9-1.1-2.3-1.1-4.1c0-0.8,0.1-1.9,0.3-3.3c0.2-1.4,0.4-2.3,0.5-3
		c0.2-0.6,0.4-1.2,0.7-1.8c0.3-0.6,0.6-1.1,1-1.5c0.9-0.9,2.1-1.3,3.6-1.3c2.1,0,3.5,0.8,4.1,2.3c0.3,0.8,0.5,1.8,0.5,3
		s-0.1,2.4-0.3,3.7c-0.2,1.3-0.4,2.2-0.5,2.8c-0.2,0.6-0.4,1.2-0.7,1.8c-0.3,0.6-0.6,1.1-1,1.4C281.6,281.7,280.4,282.2,278.8,282.2
		z M281.1,276.3c0.1-0.5,0.2-1.4,0.4-2.6s0.2-2.2,0.2-2.9c0-1.5-0.5-2.3-1.6-2.3c-0.5,0-0.9,0.2-1.3,0.7s-0.6,1.3-0.8,2.4
		c-0.4,2.3-0.6,4.2-0.6,5.6s0.5,2.2,1.6,2.2c0.5,0,0.9-0.2,1.3-0.7S280.9,277.5,281.1,276.3z"/>
	<path class="st1" d="M296.5,269.3l-1.4-0.1c-1.2,0-2.1,0.2-2.9,0.7l-1.3,11.7c0,0.2-0.1,0.3-0.3,0.4l-2.7,0.1
		c-0.2,0-0.3-0.1-0.3-0.3l1.8-15.5c0-0.2,0.1-0.3,0.3-0.3l2.6-0.1c0.2,0,0.4,0.1,0.4,0.3l-0.2,1.4c0.6-0.6,1.1-1,1.7-1.4
		c0.5-0.3,1.1-0.5,1.6-0.5s0.9,0,1.2,0.1c0.2,0,0.3,0.2,0.3,0.4c0,0.6-0.1,1.5-0.3,2.7C296.8,269.2,296.7,269.3,296.5,269.3z"/>
	<path class="st1" d="M305.6,282.2c-0.6,0-1-0.2-1.4-0.6c-0.4-0.4-0.5-0.8-0.5-1.4c0-0.6,0.2-1.1,0.7-1.5c0.5-0.5,1-0.7,1.6-0.7
		c0.6,0,1,0.2,1.4,0.5c0.4,0.4,0.5,0.8,0.5,1.4s-0.2,1.1-0.7,1.5C306.7,281.9,306.2,282.2,305.6,282.2z M309.7,261l-2,14.9
		c0,0.2-0.1,0.3-0.3,0.3l-2.3,0.1c-0.2,0-0.3-0.1-0.3-0.3l1.4-15c0-0.2,0.1-0.3,0.3-0.3l2.8-0.1C309.6,260.6,309.7,260.7,309.7,261z
		"/>
	<path class="st1" d="M313.4,282.2c-0.6,0-1-0.2-1.4-0.6c-0.4-0.4-0.5-0.8-0.5-1.4c0-0.6,0.2-1.1,0.7-1.5c0.5-0.5,1-0.7,1.6-0.7
		c0.6,0,1,0.2,1.4,0.5c0.4,0.4,0.5,0.8,0.5,1.4s-0.2,1.1-0.7,1.5C314.5,281.9,314,282.2,313.4,282.2z M317.5,261l-2,14.9
		c0,0.2-0.1,0.3-0.3,0.3l-2.3,0.1c-0.2,0-0.3-0.1-0.3-0.3l1.4-15c0-0.2,0.1-0.3,0.3-0.3l2.8-0.1C317.4,260.6,317.5,260.7,317.5,261z
		"/>
</g>
</svg>
