
<svg version="1.1" xmlns="http://www.w3.org/2000/svg" xmlns:xlink="http://www.w3.org/1999/xlink" x="0px" y="0px" width="117.1px"
	 height="102.7px" viewBox="0 0 117.1 102.7" style="overflow:visible;enable-background:new 0 0 117.1 102.7;"
	 xml:space="preserve">
<style type="text/css">
	.st0{fill:#FFFFFF;}
</style>
<defs>
</defs>
<path class="st0" d="M95.9,60.3c-1,0-2.1,0.1-3,0.2V24.9c0-1-0.8-1.9-1.9-1.9h-6.4c-1.2,0-2.2,1-2.2,2.2v39.9
	c-1.6,1.3-3,2.9-4.1,4.6c-3.8-5.8-10.3-9.6-17.7-9.6c-5.7,0-10.8,2.3-14.7,5.9V31.1c2.1,0.3,4.4,0.4,6.7,0.4c9.8,0,18-3.2,23.2-10
	c4.1-5.1,8-7,15.1-7c6.8,0,12.2,2.3,12.2,7.3c0,2.5-1.7,5.2-3.7,7.2c-0.8,0.8-0.4,2.2,0.8,2.3l6.9,1c0.9,0.1,1.9-0.1,2.6-0.8
	c2.7-2.6,4.4-6,4.4-9.6c0-9-10.2-14.1-24.6-14.1c-12.2,0-19.3,3.4-24.7,9.9c-4.1,4.9-7.1,7.2-13.9,7.2c-1.8,0-3.5-0.2-5-0.6V1.7
	C45.7,0.8,45,0,44,0h-14c-0.8,0-1.4,0.6-1.4,1.4v1.9c0,0.4-0.4,0.6-0.7,0.5c-2.9-1-6-1.3-9.3-0.9C8.8,4.2,0.2,13.6,0,23.4
	c-0.3,12,9.3,21.8,21.2,21.8c2.6,0,5.1-0.5,7.4-1.3v54.4c0,2.5,2,4.5,4.5,4.5h9c2,0,3.7-1.6,3.7-3.7v-2.2c3.8,3.6,9,5.9,14.7,5.9
	c7.4,0,13.9-3.8,17.7-9.6c4,6,10.9,9.9,18.7,9.5c10.8-0.5,19.6-9.3,20.2-20C117.7,70.4,108,60.3,95.9,60.3z M52.3,85.2
	c-1.5,0-2.7-1.2-2.7-2.7v-3.2c0-1.6,1.3-3,3-3l35.8-0.4c1.4,0,2.5,1.1,2.5,2.4v3.5c0,1.9-1.5,3.4-3.4,3.4H52.3z M104.7,86.5
	l-8.6,8.6c-0.9,0.9-2.4,0.9-3.3,0l-0.9-0.9c-1.3-1.3-1.3-3.3,0-4.5l8-8l-9.3-9.3c-1-1-1-2.6,0-3.5l1.2-1.2c1-1,2.6-1,3.6,0l9.3,9.3
	l4.8,4.8L104.7,86.5z"/>
</svg>
